<svg xmlns="http://www.w3.org/2000/svg" viewBox="0 0 60 60" x="0px" y="0px">
  <path d="m59.19,51.33c0-1.7-.85-3.26-2.26-4.18l-5.79-3.8c-2.22-1.45-4.04-3.46-5.29-5.8.46-.09.81-.48.81-.96,0-.55-.45-1-1-1h-.7c-.02-.06-.05-.11-.07-.17-.32-.88-.63-1.74-.94-2.6.44-.11.77-.48.77-.95,0-.55-.45-1-1-1h-.48c-.32-.89-.65-1.8-.98-2.72h.02c.55,0,1-.45,1-1s-.45-1-1-1h-.74c-.17-.46-.34-.93-.51-1.4-.32-.9-1.04-1.56-1.9-1.84l8.82-10.25c.36-.42.31-1.05-.11-1.41-.42-.36-1.05-.31-1.41.11l-9.8,11.39c-1.73-.11-3.8-.65-5.59-2.26-1.11-.99-1.93-2.24-2.45-3.71l9.37-10.96c.36-.42.31-1.05-.11-1.41-.42-.36-1.05-.31-1.41.11l-9.06,10.59c-.49-.33-1.07-.52-1.67-.51-7.98.14-12.96,7.32-14.05,9.05-1.26.36-2.56,1.32-3.48,2.62-1.1,1.55-1.53,3.37-1.21,5.14.73,4.01,4.57,6.32,10.34,9.38,2.11,1.12,7.1,4.8,8.64,7.08,3.17,4.7,6.12,8.25,15.27,11.12,2.39.75,4.51,1.06,6.37,1.06,8.23,0,11.44-6.01,11.48-6.09.09-.18.11-.28.11-.61v-2.03Zm-19.78-25.18h-1.46c-.55,0-1,.45-1,1s.45,1,1,1h2.18c.34.93.66,1.83.98,2.72h-1.72c-.55,0-1,.45-1,1s.45,1,1,1h2.44c.33.9.65,1.81.98,2.72h-1.98c-.55,0-1,.45-1,1s.45,1,1,1h2.79c.27.58.58,1.14.91,1.69l-3.24-.14c-1.25-.05-2.35-.89-2.73-2.08l-4.03-12.63c.93.21,1.78.3,2.52.32,0,0,.01,0,.02,0,0,0,0,0,0,0,.38,0,.74,0,1.05,0,.46-.03.86.24,1.01.67.09.25.18.49.26.73Zm-22.11-5.98c1.49,1.98,5,7.49,1.95,11.88-.02-.01-.04-.03-.07-.04-5.2-2.71-5.81-6.27-5.88-7.2.41-.65,1.79-2.73,4-4.64Zm24.53,36.92c-8.55-2.68-11.18-5.83-14.22-10.33-1.91-2.83-7.43-6.7-9.36-7.73-5.26-2.79-8.75-4.86-9.31-7.98-.29-1.58.32-2.84.87-3.62.5-.7,1.09-1.21,1.65-1.53.41,1.89,1.84,5.29,6.8,7.88,5.34,2.78,10.75,8.44,12.88,12.3,4.28,7.74,12.56,10.72,24.64,8.87-2.06,1.99-6.38,4.51-13.95,2.14Zm-8.94-11.98c-2.04-3.68-6.86-8.89-11.91-12.06,3.25-4.85.43-10.85-2.08-14.11,1.89-1.29,4.19-2.29,6.85-2.34.35.02.75.26.88.65.63,1.87,1.67,3.46,3.08,4.73.79.71,1.63,1.23,2.46,1.63l4.49,14.06c.63,1.99,2.46,3.39,4.55,3.48l4.77.2c1.16,1.42,2.52,2.67,4.05,3.68l5.8,3.8c.85.55,1.35,1.48,1.35,2.5v1.35c-18.22,3.38-22.78-4.84-24.29-7.57Zm-19.9-2.11H4c-.55,0-1-.45-1-1s.45-1,1-1h9c.55,0,1,.45,1,1s-.45,1-1,1Zm6,6h-9c-.55,0-1-.45-1-1s.45-1,1-1h9c.55,0,1,.45,1,1s-.45,1-1,1Zm6,5c0,.55-.45,1-1,1h-9c-.55,0-1-.45-1-1s.45-1,1-1h9c.55,0,1,.45,1,1Z" fill="#0080FF"/>
</svg>