<?xml version="1.0" standalone="no"?>
<!DOCTYPE svg PUBLIC "-//W3C//DTD SVG 20010904//EN"
 "http://www.w3.org/TR/2001/REC-SVG-20010904/DTD/svg10.dtd">
<svg version="1.0" xmlns="http://www.w3.org/2000/svg"
 width="700.000000pt" height="700.000000pt" viewBox="0 0 700.000000 700.000000"
 preserveAspectRatio="xMidYMid meet">
<metadata>
Created by potrace 1.14, written by Peter Selinger 2001-2017
</metadata>
<g transform="translate(0.000000,700.000000) scale(0.100000,-0.100000)"
fill="#000000" stroke="none">
<path d="M439 5453 c-1 -23 -1 -3860 0 -3895 l1 -28 3060 0 3060 0 1 23 c1 29
1 3877 0 3900 -1 16 -154 17 -3061 17 -2907 0 -3060 -1 -3061 -17z m5686
-1953 l0 -1525 -2625 -3 -2625 -2 1 1527 c1 841 2 1529 3 1531 0 1 1181 1
2623 0 l2623 -3 0 -1525z"/>
<path d="M1316 4585 c-2 -6 -3 -497 -4 -1092 l0 -1081 22 -4 c11 -2 179 -3
371 -2 318 2 357 4 428 23 206 54 381 213 453 411 37 105 40 147 39 685 -2
554 -2 561 -69 700 -82 171 -235 296 -423 346 -72 19 -108 21 -445 22 -238 1
-369 -2 -372 -8z m744 -450 c48 -24 78 -53 103 -100 22 -39 22 -47 22 -535 0
-488 0 -496 -22 -535 -51 -96 -100 -118 -275 -120 l-138 -1 0 656 0 657 138
-2 c109 -1 144 -6 172 -20z"/>
<path d="M3440 4587 c-126 -16 -250 -97 -315 -208 -62 -106 -62 -100 -62 -884
0 -681 0 -714 19 -775 38 -124 120 -218 236 -271 82 -38 134 -44 397 -44 l220
0 0 220 0 220 -217 -1 -218 0 0 218 0 218 93 0 c50 1 148 2 217 3 l125 2 0
215 0 215 -190 2 c-104 1 -202 2 -218 3 l-27 0 2 218 3 217 216 0 217 0 -1
217 c0 151 -3 218 -11 219 -58 5 -436 2 -486 -4z"/>
<path d="M4314 4588 c-2 -3 5 -46 17 -95 11 -48 23 -98 25 -109 2 -12 24 -107
48 -210 25 -104 48 -204 51 -223 3 -19 8 -37 10 -41 2 -3 6 -17 9 -31 7 -40
41 -190 100 -442 31 -130 58 -247 60 -260 6 -26 65 -285 102 -442 37 -157 46
-181 87 -230 148 -176 440 -96 481 132 2 16 34 154 70 308 37 154 68 289 70
300 2 11 23 99 45 195 185 798 261 1136 257 1145 -3 8 -357 13 -432 6 -7 -1
-15 -16 -18 -33 -11 -58 -30 -144 -71 -313 -62 -255 -183 -793 -184 -815 -2
-32 -20 10 -36 85 -9 44 -30 136 -47 205 -16 69 -32 136 -34 150 -3 14 -10 43
-16 65 -5 22 -12 50 -14 63 -11 57 -136 587 -140 591 -7 8 -435 7 -440 -1z"/>
</g>
</svg>
